<?xml version="1.0" encoding="UTF-8" standalone="no"?>
<!-- Created with Inkscape (http://www.inkscape.org/) -->

<svg
   xmlns:dc="http://purl.org/dc/elements/1.1/"
   xmlns:cc="http://creativecommons.org/ns#"
   xmlns:rdf="http://www.w3.org/1999/02/22-rdf-syntax-ns#"
   xmlns:svg="http://www.w3.org/2000/svg"
   xmlns="http://www.w3.org/2000/svg"
   xmlns:sodipodi="http://sodipodi.sourceforge.net/DTD/sodipodi-0.dtd"
   xmlns:inkscape="http://www.inkscape.org/namespaces/inkscape"
   id="svg2"
   version="1.1"
   inkscape:version="0.47pre4 r22446"
   width="630"
   height="630"
   xml:space="preserve"
   sodipodi:docname="pie.pdf"><metadata
     id="metadata8"><rdf:RDF><cc:Work
         rdf:about=""><dc:format>image/svg+xml</dc:format><dc:type
           rdf:resource="http://purl.org/dc/dcmitype/StillImage" /><dc:title></dc:title></cc:Work></rdf:RDF></metadata><defs
     id="defs6"><inkscape:perspective
       sodipodi:type="inkscape:persp3d"
       inkscape:vp_x="0 : 0.5 : 1"
       inkscape:vp_y="0 : 1000 : 0"
       inkscape:vp_z="1 : 0.5 : 1"
       inkscape:persp3d-origin="0.5 : 0.33333333 : 1"
       id="perspective10" /><clipPath
       clipPathUnits="userSpaceOnUse"
       id="clipPath20"><path
         d="m 59.04,73.44 414.72,0 0,371.52 -414.72,0 0,-371.52 z"
         id="path22" /></clipPath><clipPath
       clipPathUnits="userSpaceOnUse"
       id="clipPath38"><path
         d="m 59.04,73.44 414.72,0 0,371.52 -414.72,0 0,-371.52 z"
         id="path40" /></clipPath><clipPath
       clipPathUnits="userSpaceOnUse"
       id="clipPath56"><path
         d="m 59.04,73.44 414.72,0 0,371.52 -414.72,0 0,-371.52 z"
         id="path58" /></clipPath><clipPath
       clipPathUnits="userSpaceOnUse"
       id="clipPath74"><path
         d="m 59.04,73.44 414.72,0 0,371.52 -414.72,0 0,-371.52 z"
         id="path76" /></clipPath><inkscape:perspective
       id="perspective4911"
       inkscape:persp3d-origin="0.5 : 0.33333333 : 1"
       inkscape:vp_z="1 : 0.5 : 1"
       inkscape:vp_y="0 : 1000 : 0"
       inkscape:vp_x="0 : 0.5 : 1"
       sodipodi:type="inkscape:persp3d" /><marker
       inkscape:stockid="Arrow1Lend"
       orient="auto"
       refY="0"
       refX="0"
       id="Arrow1Lend-7"
       style="overflow:visible"><path
         id="path3600-4"
         d="M 0,0 5,-5 -12.5,0 5,5 0,0 z"
         style="fill-rule:evenodd;stroke:#000000;stroke-width:1pt;marker-start:none"
         transform="matrix(-0.8,0,0,-0.8,-10,0)" /></marker><marker
       inkscape:stockid="Arrow1Lend"
       orient="auto"
       refY="0"
       refX="0"
       id="Arrow1Lend"
       style="overflow:visible"><path
         id="path3600"
         d="M 0,0 5,-5 -12.5,0 5,5 0,0 z"
         style="fill-rule:evenodd;stroke:#000000;stroke-width:1pt;marker-start:none"
         transform="matrix(-0.8,0,0,-0.8,-10,0)" /></marker><marker
       inkscape:stockid="Arrow1Lend"
       orient="auto"
       refY="0"
       refX="0"
       id="marker4919"
       style="overflow:visible"><path
         id="path4921"
         d="M 0,0 5,-5 -12.5,0 5,5 0,0 z"
         style="fill-rule:evenodd;stroke:#000000;stroke-width:1pt;marker-start:none"
         transform="matrix(-0.8,0,0,-0.8,-10,0)" /></marker></defs><sodipodi:namedview
     pagecolor="#ffffff"
     bordercolor="#666666"
     borderopacity="1"
     objecttolerance="10"
     gridtolerance="10"
     guidetolerance="10"
     inkscape:pageopacity="0"
     inkscape:pageshadow="2"
     inkscape:window-width="1280"
     inkscape:window-height="726"
     id="namedview4"
     showgrid="false"
     inkscape:zoom="2.1190756"
     inkscape:cx="290.61159"
     inkscape:cy="538.46512"
     inkscape:window-x="0"
     inkscape:window-y="25"
     inkscape:window-maximized="1"
     inkscape:current-layer="g12" /><g
     id="g12"
     inkscape:groupmode="layer"
     inkscape:label="pie"
     transform="matrix(1.25,0,0,-1.25,0,630)"><g
       id="g14" /><g
       id="g16"><g
         id="g18"
         clip-path="url(#clipPath20)"><path
           d="m 169.1,356.5 3.17,3.07 3.27,2.96 3.35,2.86 3.45,2.75 3.54,2.64 3.62,2.52 3.69,2.41 3.77,2.29 3.85,2.16 3.91,2.04 3.97,1.91 4.04,1.79 4.08,1.65 4.14,1.53 4.19,1.39 4.23,1.25 4.26,1.12 4.31,0.98 4.32,0.85 4.36,0.7 4.37,0.56 4.39,0.43 4.41,0.28 4.4,0.14 4.42,0 4.4,-0.14 4.41,-0.28 4.39,-0.43 4.37,-0.56 4.36,-0.7 4.32,-0.85 4.31,-0.98 4.26,-1.12 4.23,-1.25 4.19,-1.39 4.14,-1.53 4.08,-1.65 4.04,-1.79 3.97,-1.91 3.91,-2.04 3.85,-2.16 3.77,-2.29 3.69,-2.41 3.62,-2.52 3.54,-2.64 3.45,-2.75 3.35,-2.86 3.27,-2.96 3.17,-3.07 -97.3,-97.3 -97.3,97.3 z"
           style="fill:#ffffff;fill-opacity:1;fill-rule:nonzero;stroke:#000000;stroke-opacity:1;stroke-width:0.75;stroke-linecap:round;stroke-linejoin:round;stroke-miterlimit:10;stroke-dasharray:none"
           id="path24" /><path
           d="m 266.4,396.8 0,6.88"
           style="fill:none;stroke:#000000;stroke-opacity:1;stroke-width:0.75;stroke-linecap:round;stroke-linejoin:round;stroke-miterlimit:10;stroke-dasharray:none"
           id="path26" /></g></g><g
       id="g34"><g
         id="g36"
         clip-path="url(#clipPath38)"><path
           d="m 363.7,356.5 3.07,-3.17 2.96,-3.27 2.86,-3.35 2.75,-3.45 2.64,-3.54 2.52,-3.62 2.41,-3.69 2.29,-3.77 2.16,-3.85 2.04,-3.91 1.91,-3.97 1.79,-4.04 1.65,-4.08 1.53,-4.14 1.39,-4.19 1.25,-4.23 1.12,-4.26 0.98,-4.31 0.85,-4.32 0.7,-4.36 0.56,-4.37 0.43,-4.39 0.28,-4.41 0.14,-4.4 0,-4.42 -0.14,-4.4 -0.28,-4.41 -0.43,-4.39 -0.56,-4.37 -0.7,-4.36 -0.85,-4.32 -0.98,-4.31 -1.12,-4.26 -1.25,-4.23 -1.39,-4.19 -1.53,-4.14 -1.65,-4.08 -1.79,-4.04 -1.91,-3.97 -2.04,-3.91 -2.16,-3.85 -2.29,-3.77 -2.41,-3.69 -2.52,-3.62 -2.64,-3.54 -2.75,-3.45 -2.86,-3.35 -2.96,-3.27 -3.07,-3.17 -97.3,97.3 97.3,97.3 z"
           style="fill:#add8e6;fill-opacity:1;fill-rule:nonzero;stroke:#000000;stroke-opacity:1;stroke-width:0.75;stroke-linecap:round;stroke-linejoin:round;stroke-miterlimit:10;stroke-dasharray:none"
           id="path42" /><path
           d="m 404,259.2 6.88,0"
           style="fill:none;stroke:#000000;stroke-opacity:1;stroke-width:0.75;stroke-linecap:round;stroke-linejoin:round;stroke-miterlimit:10;stroke-dasharray:none"
           id="path44" /></g></g><g
       id="g52"><g
         id="g54"
         clip-path="url(#clipPath56)"><path
           d="m 363.7,161.9 -3.17,-3.07 -3.27,-2.96 -3.35,-2.86 -3.45,-2.75 -3.54,-2.64 -3.62,-2.52 -3.69,-2.41 -3.77,-2.29 -3.85,-2.16 -3.91,-2.04 -3.97,-1.91 -4.04,-1.79 -4.08,-1.65 -4.14,-1.53 -4.19,-1.39 -4.23,-1.25 -4.26,-1.12 -4.31,-0.98 -4.32,-0.85 -4.36,-0.7 -4.37,-0.56 -4.39,-0.43 -4.41,-0.28 -4.4,-0.14 -4.42,0 -4.4,0.14 -4.41,0.28 -4.39,0.43 -4.37,0.56 -4.36,0.7 -4.32,0.85 -4.31,0.98 -4.26,1.12 -4.23,1.25 -4.19,1.39 -4.14,1.53 -4.08,1.65 -4.04,1.79 -3.97,1.91 -3.91,2.04 -3.85,2.16 -3.77,2.29 -3.69,2.41 -3.62,2.52 -3.54,2.64 -3.45,2.75 -3.35,2.86 -3.27,2.96 -3.17,3.07 97.3,97.3 97.3,-97.3 z"
           style="fill:#ffe4e1;fill-opacity:1;fill-rule:nonzero;stroke:#000000;stroke-opacity:1;stroke-width:0.75;stroke-linecap:round;stroke-linejoin:round;stroke-miterlimit:10;stroke-dasharray:none"
           id="path60" /><path
           d="m 266.4,121.6 0,-6.88"
           style="fill:none;stroke:#000000;stroke-opacity:1;stroke-width:0.75;stroke-linecap:round;stroke-linejoin:round;stroke-miterlimit:10;stroke-dasharray:none"
           id="path62" /></g></g><g
       id="g70"><g
         id="g72"
         clip-path="url(#clipPath74)"><path
           d="m 169.1,161.9 -3.07,3.17 -2.96,3.27 -2.86,3.35 -2.75,3.45 -2.64,3.54 -2.52,3.62 -2.41,3.69 -2.29,3.77 -2.16,3.85 -2.04,3.91 -1.91,3.97 -1.79,4.04 -1.65,4.08 -1.53,4.14 -1.39,4.19 -1.25,4.23 -1.12,4.26 -0.98,4.31 -0.85,4.32 -0.7,4.36 -0.56,4.37 -0.43,4.39 -0.28,4.41 -0.14,4.4 0,4.42 0.14,4.4 0.28,4.41 0.43,4.39 0.56,4.37 0.7,4.36 0.85,4.32 0.98,4.31 1.12,4.26 1.25,4.23 1.39,4.19 1.53,4.14 1.65,4.08 1.79,4.04 1.91,3.97 2.04,3.91 2.16,3.85 2.29,3.77 2.41,3.69 2.52,3.62 2.64,3.54 2.75,3.45 2.86,3.35 2.96,3.27 3.07,3.17 97.3,-97.3 -97.3,-97.3 z"
           style="fill:#e0ffff;fill-opacity:1;fill-rule:nonzero;stroke:#000000;stroke-opacity:1;stroke-width:0.75;stroke-linecap:round;stroke-linejoin:round;stroke-miterlimit:10;stroke-dasharray:none"
           id="path78" /><path
           d="m 128.8,259.2 -6.88,0"
           style="fill:none;stroke:#000000;stroke-opacity:1;stroke-width:0.75;stroke-linecap:round;stroke-linejoin:round;stroke-miterlimit:10;stroke-dasharray:none"
           id="path80" /></g></g><path
       style="fill:none;stroke:#000000;stroke-width:0.80000001px;stroke-linecap:butt;stroke-linejoin:miter;stroke-opacity:1;marker-end:url(#Arrow1Lend)"
       d="m 266.54,259.31392 c 0.76271,203.64407 0.76271,203.64407 0.76271,203.64407"
       id="path2820" /><path
       style="fill:none;stroke:#000000;stroke-width:0.80000001px;stroke-linecap:butt;stroke-linejoin:miter;stroke-opacity:1;marker-end:url(#Arrow1Lend)"
       d="M 265.39593,259.27196 C 469.04,258.50926 469.04,258.50926 469.04,258.50926"
       id="path2820-9" /><path
       style="fill:none;stroke:#000000;stroke-width:0.80000001px;stroke-linecap:butt;stroke-linejoin:miter;stroke-opacity:1;marker-end:url(#Arrow1Lend-7)"
       d="m 311.24258,444.43559 c 5.88971,-2.34384 13.15055,-0.44226 28.8302,-9.25717 13.77031,-8.17272 18.6273,-23.55202 20.81099,-27.46784"
       id="path4262"
       sodipodi:nodetypes="ccc" /><text
       xml:space="preserve"
       style="font-size:25.60000038px;font-style:normal;font-variant:normal;font-weight:normal;font-stretch:normal;text-align:start;line-height:125%;writing-mode:lr-tb;text-anchor:start;fill:#000000;fill-opacity:1;stroke:none;font-family:Bitstream Vera Sans;-inkscape-font-specification:Bitstream Vera Sans"
       x="284.53577"
       y="-433.43723"
       id="text4849"
       sodipodi:linespacing="125%"
       transform="scale(1,-1)"><tspan
         sodipodi:role="line"
         id="tspan4851"
         x="284.53577"
         y="-433.43723">0</tspan></text>
<text
       xml:space="preserve"
       style="font-size:25.60000038px;font-style:normal;font-variant:normal;font-weight:normal;font-stretch:normal;text-align:start;line-height:125%;writing-mode:lr-tb;text-anchor:start;fill:#000000;fill-opacity:1;stroke:none;font-family:Bitstream Vera Sans;-inkscape-font-specification:Bitstream Vera Sans"
       x="365.4949"
       y="-387.67618"
       id="text4849-3"
       sodipodi:linespacing="125%"
       transform="scale(1,-1)"><tspan
         sodipodi:role="line"
         id="tspan4851-3"
         x="365.4949"
         y="-387.67618">+</tspan></text>
<text
       xml:space="preserve"
       style="font-size:25.60000038px;font-style:normal;font-variant:normal;font-weight:normal;font-stretch:normal;text-align:start;line-height:125%;writing-mode:lr-tb;text-anchor:start;fill:#000000;fill-opacity:1;stroke:none;font-family:Bitstream Vera Sans;-inkscape-font-specification:Bitstream Vera Sans"
       x="442.98642"
       y="-280.89651"
       id="text4849-1"
       sodipodi:linespacing="125%"
       transform="scale(1,-1)"><tspan
         sodipodi:role="line"
         id="tspan4851-38"
         x="442.98642"
         y="-280.89651">90</tspan></text>
</g></svg>