<?xml version="1.0" encoding="UTF-8" standalone="no"?>
<!-- Created with Inkscape (http://www.inkscape.org/) -->

<svg
   xmlns:dc="http://purl.org/dc/elements/1.1/"
   xmlns:cc="http://creativecommons.org/ns#"
   xmlns:rdf="http://www.w3.org/1999/02/22-rdf-syntax-ns#"
   xmlns:svg="http://www.w3.org/2000/svg"
   xmlns="http://www.w3.org/2000/svg"
   xmlns:sodipodi="http://sodipodi.sourceforge.net/DTD/sodipodi-0.dtd"
   xmlns:inkscape="http://www.inkscape.org/namespaces/inkscape"
   id="svg2"
   version="1.1"
   inkscape:version="0.47pre4 r22446"
   width="379"
   height="375"
   sodipodi:docname="sky_.png">
  <metadata
     id="metadata8">
    <rdf:RDF>
      <cc:Work
         rdf:about="">
        <dc:format>image/svg+xml</dc:format>
        <dc:type
           rdf:resource="http://purl.org/dc/dcmitype/StillImage" />
        <dc:title></dc:title>
      </cc:Work>
    </rdf:RDF>
  </metadata>
  <defs
     id="defs6">
    <inkscape:perspective
       sodipodi:type="inkscape:persp3d"
       inkscape:vp_x="0 : 0.5 : 1"
       inkscape:vp_y="0 : 1000 : 0"
       inkscape:vp_z="1 : 0.5 : 1"
       inkscape:persp3d-origin="0.5 : 0.33333333 : 1"
       id="perspective10" />
    <inkscape:perspective
       id="perspective2826"
       inkscape:persp3d-origin="0.5 : 0.33333333 : 1"
       inkscape:vp_z="1 : 0.5 : 1"
       inkscape:vp_y="0 : 1000 : 0"
       inkscape:vp_x="0 : 0.5 : 1"
       sodipodi:type="inkscape:persp3d" />
  </defs>
  <sodipodi:namedview
     pagecolor="#ffffff"
     bordercolor="#666666"
     borderopacity="1"
     objecttolerance="10"
     gridtolerance="10"
     guidetolerance="10"
     inkscape:pageopacity="0"
     inkscape:pageshadow="2"
     inkscape:window-width="973"
     inkscape:window-height="724"
     id="namedview4"
     showgrid="false"
     inkscape:zoom="1.2586667"
     inkscape:cx="206.77053"
     inkscape:cy="196.7145"
     inkscape:window-x="0"
     inkscape:window-y="25"
     inkscape:window-maximized="0"
     inkscape:current-layer="svg2" />
  <path
     style="fill:none;stroke:#000000;stroke-width:1px;stroke-linecap:butt;stroke-linejoin:miter;stroke-opacity:1"
     d="m 371.82203,367.05508 -1.58898,1.58899 c 0,0 -0.79449,-1.58898 -0.79449,-363.8771209 -9.3249,-1.0361006 -23.85728,-0.9207815 -35.75212,1e-7 l -7.94491,0 C 297.5124,182.03727 109.38678,213.26559 65.148305,14.300847 L 61.175848,3.1779661 c -8.92139,-0.9912655 -30.303876,0.2411046 -46.875001,0 C 12.711864,367.05508 12.711864,367.05508 12.711864,367.05508"
     id="path2832"
     sodipodi:nodetypes="ccccccccc" />
  <path
     style="fill:none;stroke:#000000;stroke-width:1px;stroke-linecap:butt;stroke-linejoin:miter;stroke-opacity:1"
     d="M 72.298729,367.84958 C 101.8735,179.25679 290.98483,189.89268 324.15254,368.64407"
     id="path2836"
     sodipodi:nodetypes="cc" />
  <path
     style="fill:none;stroke:#000000;stroke-width:1px;stroke-linecap:butt;stroke-linejoin:miter;stroke-opacity:1"
     d="m 12.711864,367.05508 c 59.586865,0 59.586865,0 59.586865,0 l -1.588983,0"
     id="path2840" />
  <path
     style="fill:none;stroke:#000000;stroke-width:1px;stroke-linecap:butt;stroke-linejoin:miter;stroke-opacity:1"
     d="m 323.35805,367.84958 c 45.28602,0.79449 46.08051,0.79449 46.08051,0.79449"
     id="path2842" />
  <path
     style="fill:none;stroke:#000000;stroke-width:1px;stroke-linecap:butt;stroke-linejoin:miter;stroke-opacity:1"
     d="M 15.095339,68.326271 C 14.211746,86.653351 32.507255,76.99878 40.519068,85.010593 82.082176,126.5737 47.492658,72.992532 76.271186,52.436441"
     id="path2867" />
  <path
     style="fill:none;stroke:#000000;stroke-width:1.03479636px;stroke-linecap:butt;stroke-linejoin:miter;stroke-opacity:1"
     d="m 11.934771,304.20615 c 44.752894,13.46981 35.886175,-92.31735 79.414356,-0.98487"
     id="path2869"
     sodipodi:nodetypes="cc" />
  <path
     style="fill:none;stroke:#000000;stroke-width:1.02038145px;stroke-linecap:butt;stroke-linejoin:miter;stroke-opacity:1"
     d="m 190.66778,231.18684 c -1.07133,-27.11036 0,-53.29745 0,-80.22326"
     id="path2871" />
  <path
     style="fill:none;stroke:#000000;stroke-width:1.03282249px;stroke-linecap:butt;stroke-linejoin:miter;stroke-opacity:1"
     d="M 129.06038,254.22087 C 115.2268,246.403 114.90252,230.40574 104.3202,219.92849 c -23.572154,-23.33815 27.74864,-16.04237 32.98689,-21.22863 7.43757,-7.36373 -0.27725,-51.79523 3.2987,-61.23642"
     id="path2873" />
  <path
     style="fill:none;stroke:#000000;stroke-width:1px;stroke-linecap:butt;stroke-linejoin:miter;stroke-opacity:1"
     d="m 273.30509,113.61228 c -1.48322,6.22359 -8.81533,19.14372 -12.71187,23.04026 -32.02853,32.02853 8.73941,25.39069 8.73941,68.32627 0,1.87246 2.83664,11.4642 0.79449,13.50636 -7.42887,7.42887 -16.98119,18.07255 -21.45127,27.01271"
     id="path2875"
     sodipodi:nodetypes="csssc" />
  <path
     style="fill:none;stroke:#000000;stroke-width:1px;stroke-linecap:butt;stroke-linejoin:miter;stroke-opacity:1"
     d="m 328.125,284.42797 c 0.71689,-11.27887 -2.38347,-22.7124 -2.38347,-33.36865 0,-13.79874 -4.69992,-64.28678 19.06779,-40.51907 3.72474,3.72474 -3.21956,22.32896 -4.76695,25.42373 -7.00439,14.00879 13.58794,64.79185 -11.91737,48.46399 z"
     id="path2877" />
  <path
     style="fill:none;stroke:#000000;stroke-width:1px;stroke-linecap:butt;stroke-linejoin:miter;stroke-opacity:1"
     d="m 337.6589,77.860169 c -5.35103,-3.831006 -1.99629,-32.98146 -1.58898,-32.574152 45.14017,45.140179 -11.12289,109.353483 -11.12289,69.120763 0,-17.986185 2.20015,-22.85693 12.71187,-36.546611 z"
     id="path2879" />
  <path
     style="fill:#c83737;fill-opacity:1;stroke:none"
     d="M 57.47183,98.280151 C 56.052479,97.592741 51.445904,93.83076 47.234995,89.920193 43.024085,86.009627 38.653085,82.454595 37.52166,82.020114 36.390235,81.585634 32.298486,80.714919 28.428884,80.085191 20.088248,78.727859 18.843174,78.149803 17.000819,74.77943 15.739783,72.472511 15.57751,68.892953 15.350825,38.382358 L 15.099414,4.5438315 26.473707,4.0235059 C 40.340911,3.38914 56.246991,3.4681978 58.800046,4.1841771 c 2.214118,0.6209276 4.365863,6.0237349 7.636907,19.1754789 1.141154,4.588188 3.558089,12.873747 5.370966,18.412351 l 3.296139,10.070191 -3.277626,3.555805 c -6.655762,7.220649 -8.78734,14.162614 -9.497426,30.930517 -0.300253,7.090137 -0.84828,12.01612 -1.386517,12.462823 -0.564855,0.468782 -1.832855,0.28202 -3.470659,-0.511192 z"
     id="path3659" />
  <path
     style="fill:#c83737;fill-opacity:1;stroke:none"
     d="m 13.619641,335.79345 0.0036,-29.99206 6.153675,-0.018 c 5.302049,-0.0155 6.744096,-0.34255 10.419894,-2.3629 5.670926,-3.11695 11.387846,-9.70042 18.263732,-21.03208 10.277976,-16.9384 14.314121,-19.06663 21.856155,-11.5246 4.476218,4.47622 7.876952,9.65017 14.833725,22.56836 3.718218,6.90444 5.399806,10.8033 4.927721,11.42519 -1.228884,1.61885 -7.063781,16.47534 -9.575872,24.38155 -3.028033,9.53002 -5.401828,18.81227 -6.95785,27.20728 -0.668604,3.60724 -1.400594,7.18428 -1.626643,7.94897 -0.381683,1.29119 -2.475583,1.39036 -29.3564,1.39036 l -28.945402,0 0.0036,-29.99205 z"
     id="path3661" />
  <path
     style="fill:#c83737;fill-opacity:1;stroke:none"
     d="m 327.73016,123.66421 c -1.27652,-1.88225 -1.4707,-3.67034 -1.40203,-12.91049 0.0947,-12.744115 1.22115,-16.460796 8.01118,-26.432597 l 4.31326,-6.334422 -1.43513,-2.882909 c -1.20892,-2.428517 -1.41661,-4.738034 -1.31769,-14.652875 0.0646,-6.473482 0.36477,-12.015061 0.66708,-12.314619 1.17151,-1.160837 9.20528,10.479576 12.02944,17.429885 4.54756,11.191604 5.19313,23.662116 1.83506,35.447587 -4.98872,17.50834 -17.63268,30.12405 -22.70117,22.65044 z"
     id="path3663" />
  <path
     style="fill:#c83737;fill-opacity:1;stroke:none"
     d="m 331.21399,285.08743 c -1.93076,-1.04746 -2.18485,-1.64385 -2.18485,-5.12835 0,-2.16868 -0.56892,-9.15453 -1.26427,-15.52412 -1.71888,-15.74549 -1.26938,-47.47293 0.74722,-52.74137 1.6869,-4.40709 3.44309,-6.39537 5.64884,-6.39537 2.27049,0 8.8122,4.20461 10.00274,6.42915 1.40972,2.63409 0.44836,8.3377 -3.18666,18.90592 -3.69215,10.73433 -3.92331,14.2049 -2.01672,30.27933 1.56715,13.21267 1.5516,21.37843 -0.0451,23.65797 -1.44633,2.06492 -4.47324,2.26806 -7.70124,0.51684 l -10e-6,0 z"
     id="path3665" />
  <path
     style="fill:#ffe680;fill-opacity:1;stroke:none"
     d="m 324.67915,366.38137 c -0.16111,-0.54621 -1.43106,-5.81965 -2.82211,-11.71875 -10.93238,-46.36134 -35.45952,-85.16378 -66.87739,-105.80138 l -5.29123,-3.47568 3.5145,-5.26224 c 1.93297,-2.89424 6.28039,-8.3694 9.66093,-12.16705 10.21213,-11.47214 9.33813,-9.46518 8.21064,-18.85396 -1.56529,-13.03446 -2.44006,-18.24496 -3.7314,-22.22586 -1.42847,-4.40363 -5.97445,-11.63108 -11.4675,-18.23164 -2.17347,-2.61169 -4.48695,-5.78345 -5.14106,-7.04836 -2.85676,-5.52437 -0.54913,-11.90043 7.60992,-21.0264 5.6166,-6.28223 9.35212,-11.84595 12.68473,-18.89275 1.26269,-2.66995 3.85159,-6.48814 5.75313,-8.48488 23.08863,-24.244597 39.84432,-58.419175 47.77034,-97.431435 1.02261,-5.033322 2.04358,-9.3357923 2.26884,-9.5610459 0.71935,-0.7193574 39.87268,-1.2558659 40.85336,-0.5598037 0.7205,0.5113904 1.00083,43.1348296 1.19174,181.2015946 l 0.24963,180.53292 -22.07207,-8e-5 c -16.97172,-7e-5 -22.13977,-0.22957 -22.365,-0.9932 z m 15.63675,-80.16692 c 0.7647,-0.90371 1.44153,-2.5867 1.50408,-3.73995 0.25091,-4.62652 -0.28125,-13.73375 -1.35277,-23.15086 -1.67549,-14.72516 -1.5442,-16.39567 2.14227,-27.25879 2.15189,-6.34107 3.41999,-11.63656 3.67276,-15.3371 l 0.38607,-5.65202 -2.94777,-2.69014 c -4.02266,-3.67107 -5.89641,-4.61522 -9.22484,-4.6482 -3.25939,-0.0323 -5.54097,1.94371 -7.41044,6.41798 -3.04024,7.2763 -3.4113,33.87241 -0.79676,57.10831 0.6143,5.45946 1.11691,11.75988 1.11691,14.00095 l 0,4.07466 3.77384,1.68264 c 4.25952,1.89919 7.05544,1.65209 9.13665,-0.80748 l 0,0 z m -2.3795,-160.90304 c 8.36813,-5.79911 15.33198,-21.25373 16.22562,-36.008958 0.61447,-10.145543 -1.13725,-18.778216 -5.72315,-28.204449 -2.98164,-6.128695 -10.28284,-16.142977 -12.34619,-16.933961 -1.20512,-0.461983 -1.85853,5.735892 -1.86902,17.728453 -0.006,7.485213 0.34129,12.729502 0.93526,14.101059 0.87303,2.015913 0.62476,2.656843 -3.23141,8.342158 -5.36302,7.906939 -6.94245,12.831237 -7.48149,23.325668 -0.5816,11.32316 0.10512,15.45563 3.05928,18.40979 1.95773,1.95773 2.76719,2.26327 4.87778,1.84116 1.39179,-0.27836 3.89078,-1.44878 5.55332,-2.60092 l 0,0 z"
     id="path3667" />
  <path
     style="fill:#ffe680;fill-opacity:1;stroke:none"
     d="m 15.170244,304.14672 c -1.05172,-0.32783 -1.16898,-11.08049 -0.998046,-91.51942 0.106531,-50.13137 0.416093,-101.27132 0.687917,-113.644343 l 0.494224,-22.496403 1.695558,1.588077 c 2.20135,2.061807 4.667932,2.95745 10.03772,3.64481 8.62908,1.104565 10.091328,1.823731 17.310153,8.513514 11.229947,10.406945 16.483553,13.057215 18.4818,9.323455 0.489628,-0.914877 1.172445,-7.439639 1.517371,-14.49947 0.470622,-9.632517 1.027824,-13.9599 2.232617,-17.339118 1.810646,-5.078523 5.854812,-11.362173 8.078727,-12.552376 1.301671,-0.696633 1.721472,-0.194949 3.480328,4.159168 5.937417,14.698305 13.565704,28.678274 22.617147,41.449276 6.09301,8.59684 24.40238,26.78662 32.34648,32.13519 l 6.35593,4.27931 0,27.50035 c 0,25.91764 -0.0915,27.68218 -1.58899,30.65956 -1.86645,3.71087 -2.25909,3.82638 -17.47881,5.14203 -24.383794,2.10784 -28.251943,6.76907 -16.80985,20.25636 2.38609,2.8126 6.56413,9.44267 9.36687,14.86421 3.68743,7.13281 6.28562,11.03328 9.58078,14.38285 l 4.52126,4.59594 -7.32201,7.33255 c -10.22723,10.24192 -18.05038,20.78635 -24.835992,33.47518 l -3.358546,6.28034 -3.33728,-6.67759 c -8.048773,-16.10484 -17.414717,-28.52831 -22.431746,-29.75465 -6.334819,-1.54844 -10.361358,1.76936 -18.527168,15.26607 -10.334402,17.08103 -17.148734,23.18705 -26.497489,23.74323 -2.43497,0.14486 -4.9635,0.0962 -5.618955,-0.1081 z"
     id="path3669" />
  <path
     style="fill:#37c837;fill-opacity:1;stroke:none"
     d="m 127.09185,251.57211 c -3.72079,-2.46837 -7.78284,-8.14012 -12.60784,-17.60406 -2.9962,-5.87685 -6.48449,-11.29171 -9.53296,-14.79798 -10.422054,-11.98719 -7.338937,-14.90931 17.97679,-17.03806 13.04059,-1.09655 14.85175,-1.6833 16.70628,-5.41221 1.33509,-2.68446 1.46303,-5.31525 1.46303,-30.08331 0,-14.92788 0.21904,-27.36223 0.48675,-27.63188 0.26771,-0.26965 2.94912,0.75416 5.95868,2.27514 10.13472,5.12189 27.43685,9.97532 35.66262,10.00375 1.74788,0.006 3.91882,0.20994 4.82431,0.45311 1.63795,0.43986 1.64605,0.63993 1.58899,39.22396 l -0.0574,38.78185 -5.58628,0.50714 c -16.31208,1.48088 -34.59342,8.43986 -48.63258,18.5125 -3.22399,2.3131 -5.92945,4.20329 -6.01214,4.20041 -0.0827,-0.003 -1.08992,-0.62854 -2.23828,-1.39036 z"
     id="path3671" />
  <path
     style="fill:#5aa02c;fill-opacity:1;stroke:none"
     d="m 240.40859,240.5849 c -13.07805,-6.42009 -29.81372,-10.65745 -42.09217,-10.65745 l -6.56178,0 -0.35926,-10.59306 c -0.1976,-5.82619 -0.19746,-23.3186 3e-4,-38.87204 l 0.35958,-28.27898 6.05336,-0.50788 c 25.59386,-2.14735 48.56539,-11.58825 67.03059,-27.54841 2.51258,-2.17172 4.56832,-3.63944 4.56832,-3.26161 0,1.54517 -7.52772,12.74486 -11.84839,17.62793 -6.39189,7.22391 -8.49128,10.5292 -9.5859,15.09208 -0.83753,3.49125 -0.75859,4.33089 0.72191,7.67779 0.91425,2.06683 3.61037,6.13901 5.99137,9.04931 5.32892,6.51352 9.5012,13.34989 11.11759,18.21639 0.67282,2.02566 1.92058,9.1769 2.7728,15.89163 l 1.54949,12.20861 -7.1814,8.03948 c -3.94978,4.42172 -8.84868,10.61967 -10.88645,13.77325 -2.03777,3.15357 -3.8838,5.71562 -4.10229,5.69345 -0.21848,-0.0222 -3.61494,-1.61988 -7.54767,-3.55049 z"
     id="path3673" />
  <path
     style="fill:#5aa02c;fill-opacity:1;stroke:none"
     d="m 125.83249,249.77318 c -3.23168,-3.02899 -6.0601,-7.16444 -11.39981,-16.66776 -2.33248,-4.15122 -6.49044,-10.5866 -9.23989,-14.30085 -8.888654,-12.00769 -7.020824,-13.7116 17.85749,-16.29036 6.24212,-0.64703 12.33976,-1.68859 13.5503,-2.31459 4.21252,-2.17837 4.39204,-3.37734 4.94652,-33.037 0.28184,-15.07547 0.56404,-27.48438 0.62711,-27.57535 0.0631,-0.091 2.4194,0.86867 5.23629,2.13252 11.93822,5.35631 24.23481,8.79291 35.51776,9.92634 4.52886,0.45494 5.35095,0.77862 5.74922,2.26361 0.25559,0.95301 0.4696,18.2613 0.47556,38.46285 l 0.0109,36.7301 -1.78761,0.32211 c -0.98318,0.17717 -5.4652,0.89454 -9.96005,1.59417 -14.13311,2.19985 -26.50522,7.14006 -39.96146,15.95671 -4.36296,2.85864 -8.18844,5.19588 -8.50107,5.19386 -0.31263,-0.002 -1.71717,-1.08038 -3.12121,-2.39636 l 0,0 z"
     id="path3675" />
</svg>
