<?xml version="1.0" encoding="UTF-8" standalone="no"?>
<!-- Created with Inkscape (http://www.inkscape.org/) -->

<svg
   xmlns:dc="http://purl.org/dc/elements/1.1/"
   xmlns:cc="http://creativecommons.org/ns#"
   xmlns:rdf="http://www.w3.org/1999/02/22-rdf-syntax-ns#"
   xmlns:svg="http://www.w3.org/2000/svg"
   xmlns="http://www.w3.org/2000/svg"
   xmlns:sodipodi="http://sodipodi.sourceforge.net/DTD/sodipodi-0.dtd"
   xmlns:inkscape="http://www.inkscape.org/namespaces/inkscape"
   width="744.09448819"
   height="1052.3622047"
   id="svg15014"
   version="1.1"
   inkscape:version="0.47pre4 r22446"
   sodipodi:docname="soil_stratigraphy_basin.pdf">
  <defs
     id="defs15016">
    <inkscape:perspective
       sodipodi:type="inkscape:persp3d"
       inkscape:vp_x="0 : 526.18109 : 1"
       inkscape:vp_y="0 : 1000 : 0"
       inkscape:vp_z="744.09448 : 526.18109 : 1"
       inkscape:persp3d-origin="372.04724 : 350.78739 : 1"
       id="perspective15022" />
    <inkscape:perspective
       id="perspective23583"
       inkscape:persp3d-origin="0.5 : 0.33333333 : 1"
       inkscape:vp_z="1 : 0.5 : 1"
       inkscape:vp_y="0 : 1000 : 0"
       inkscape:vp_x="0 : 0.5 : 1"
       sodipodi:type="inkscape:persp3d" />
    <marker
       inkscape:stockid="Arrow2Lend"
       orient="auto"
       refY="0"
       refX="0"
       id="Arrow2Lend"
       style="overflow:visible">
      <path
         id="path18447"
         style="font-size:12px;fill-rule:evenodd;stroke-width:0.625;stroke-linejoin:round"
         d="M 8.7185878,4.0337352 -2.2072895,0.01601326 8.7185884,-4.0017078 c -1.7454984,2.3720609 -1.7354408,5.6174519 -6e-7,8.035443 z"
         transform="matrix(-1.1,0,0,-1.1,-1.1,0)" />
    </marker>
    <inkscape:path-effect
       effect="spiro"
       id="path-effect19251-6"
       is_visible="true" />
    <marker
       inkscape:stockid="Arrow2Lend"
       orient="auto"
       refY="0"
       refX="0"
       id="marker23590"
       style="overflow:visible">
      <path
         id="path23592"
         style="font-size:12px;fill-rule:evenodd;stroke-width:0.625;stroke-linejoin:round"
         d="M 8.7185878,4.0337352 -2.2072895,0.01601326 8.7185884,-4.0017078 c -1.7454984,2.3720609 -1.7354408,5.6174519 -6e-7,8.035443 z"
         transform="matrix(-1.1,0,0,-1.1,-1.1,0)" />
    </marker>
    <inkscape:path-effect
       effect="spiro"
       id="path-effect19251"
       is_visible="true" />
    <inkscape:path-effect
       effect="spiro"
       id="path-effect18417"
       is_visible="true" />
  </defs>
  <sodipodi:namedview
     id="base"
     pagecolor="#ffffff"
     bordercolor="#666666"
     borderopacity="1.0"
     inkscape:pageopacity="0.0"
     inkscape:pageshadow="2"
     inkscape:zoom="1.4"
     inkscape:cx="371.05083"
     inkscape:cy="711.37234"
     inkscape:document-units="px"
     inkscape:current-layer="layer1"
     showgrid="false"
     inkscape:window-width="1280"
     inkscape:window-height="726"
     inkscape:window-x="0"
     inkscape:window-y="25"
     inkscape:window-maximized="1" />
  <metadata
     id="metadata15019">
    <rdf:RDF>
      <cc:Work
         rdf:about="">
        <dc:format>image/svg+xml</dc:format>
        <dc:type
           rdf:resource="http://purl.org/dc/dcmitype/StillImage" />
        <dc:title></dc:title>
      </cc:Work>
    </rdf:RDF>
  </metadata>
  <g
     inkscape:label="Livello 1"
     inkscape:groupmode="layer"
     id="layer1">
    <path
       style="fill:none;stroke:#000000;stroke-width:1.9435693px;stroke-linecap:butt;stroke-linejoin:miter;stroke-opacity:1;display:inline"
       d="m 264.24211,472.26513 c 8.96214,-10.00339 6.20927,-27.12642 8.07585,-40.04798 -0.22356,-20.20109 4.80011,-37.60497 4.74568,-57.81471 2.4404,-18.63057 4.61418,-37.49685 11.99364,-54.97887 6.37489,-16.61528 10.72509,-34.0294 17.96833,-50.25355 6.16692,-13.22042 15.38915,-25.61812 25.37632,-36.19562 8.37818,-9.59355 21.46351,-15.71698 34.23819,-19.38539 11.15017,-0.0591 21.28909,-4.23006 32.3932,-3.9057 11.55017,-1.44107 23.03557,-2.67628 34.64167,-3.04285 11.08823,0.0505 22.70306,-1.54325 32.12656,5.26432 14.28212,3.42502 22.70088,15.78752 32.58702,25.74559 6.13237,11.61957 13.69028,22.81497 17.54279,35.50006 7.03928,13.65999 5.93938,29.24225 5.90735,44.14458 -0.44962,12.72624 -7.3936,24.31713 -14.20246,34.92228 -8.61223,10.63859 -17.97325,20.13768 -29.01896,28.45882 -10.62419,6.97803 -20.6103,15.12431 -32.81811,19.38279 -10.5143,5.40401 -20.27059,12.21233 -31.16219,16.85713 -15.8416,8.5332 -33.19463,14.39135 -49.38545,22.39482 -11.48828,5.67055 -24.00216,10.10777 -36.30501,14.35966 -12.82607,3.94897 -24.80652,5.25332 -37.18825,7.69324 -10.18375,-0.46391 -20.99622,19.81964 -27.55151,12.32851 l 0.0194,-0.75153 0.0175,-0.6756 2e-5,0 -0.002,0 z"
       id="path16645"
       sodipodi:nodetypes="ccccccccccccccccccccccccc" />
    <path
       style="fill:none;stroke:#000000;stroke-width:1.9435693px;stroke-linecap:butt;stroke-linejoin:miter;stroke-opacity:1;display:inline"
       d="m 273.56681,409.64465 c 3.09951,-10.19995 15.46679,-13.90916 23.80651,-18.7885 11.78822,-4.99975 25.76023,0.23113 31.68939,11.3048 7.45425,9.22475 13.97928,19.85273 8.63906,32.60206 -0.4437,5.07596 -1.0877,10.35983 -0.6105,15.36652"
       id="path16656"
       sodipodi:nodetypes="ccccc" />
    <path
       style="fill:none;stroke:#000000;stroke-width:1.9435693px;stroke-linecap:butt;stroke-linejoin:miter;stroke-opacity:1;display:inline"
       d="m 291.92479,312.07322 c 14.28149,-3.97433 22.32457,5.21897 27.98985,15.17128 4.64828,9.39422 4.49672,20.34225 5.58783,30.54412 -1.3652,11.99562 -9.2708,22.67492 -15.80249,31.17671"
       id="path16658"
       sodipodi:nodetypes="cccc" />
    <path
       style="fill:none;stroke:#000000;stroke-width:1.9435693px;stroke-linecap:butt;stroke-linejoin:miter;stroke-opacity:1;display:inline"
       d="m 325.4354,345.85915 c 11.05942,0.0156 25.54061,-1.51444 31.57933,9.51487 11.58937,3.03121 19.34978,20.53406 7.31786,27.56317 -9.8666,7.38023 -2.01269,24.05711 -15.62243,28.28323 -3.21654,1.10681 -7.49638,5.89702 -10.7447,6.87073"
       id="path16660"
       sodipodi:nodetypes="ccccc" />
    <path
       style="fill:none;stroke:#000000;stroke-width:1.9435693px;stroke-linecap:butt;stroke-linejoin:miter;stroke-opacity:1;display:inline"
       d="m 360.40299,392.46044 c 12.9292,-0.66284 26.31069,-1.89898 38.50191,3.2328 11.60009,-2.02046 24.25434,-4.8819 35.18448,2.99328 2.9871,0.84401 2.69688,4.48539 4.40792,6.58937"
       id="path16662" />
    <path
       style="fill:none;stroke:#000000;stroke-width:1.9435693px;stroke-linecap:butt;stroke-linejoin:miter;stroke-opacity:1;display:inline"
       d="m 313.77953,318.48089 c 10.30628,-4.80313 19.41874,-20.97392 19.1177,-31.83799 1.96946,-12.93101 -10.23134,-25.53755 -14.45535,-35.15135"
       id="path16664"
       sodipodi:nodetypes="ccc" />
    <path
       style="fill:none;stroke:#000000;stroke-width:1.9435693px;stroke-linecap:butt;stroke-linejoin:miter;stroke-opacity:1;display:inline"
       d="m 333.5945,286.44251 c 8.01069,-7.8766 21.43617,-9.09114 31.95894,-9.31259 12.72089,0.20849 25.1402,9.72134 26.90316,22.43072 -0.23064,12.16939 -5.52624,25.14151 -16.52675,31.45708 -7.50369,7.37065 -16.84743,13.63262 -27.39745,15.4539 -1.16175,-0.49856 -4.86902,0.97639 -5.03042,-0.61247"
       id="path16666"
       sodipodi:nodetypes="cccccc" />
    <path
       style="fill:none;stroke:#000000;stroke-width:1.9435693px;stroke-linecap:butt;stroke-linejoin:miter;stroke-opacity:1;display:inline"
       d="m 381.86227,391.89872 c 10.50462,-0.28425 22.5637,-7.84154 31.10031,-14.05643 10.58653,-7.94562 16.80388,-20.96277 29.6667,-25.85229 12.87779,-3.53999 19.92712,-15.33509 23.54799,-27.27419 2.67071,-10.71479 2.4015,-22.10235 1.56907,-33.07918 -3.81347,-11.59504 -9.85109,-22.38945 -15.55925,-33.17756 -6.39936,-9.76853 -16.94844,-15.84192 -25.8784,-23.00437 -11.77584,-8.48359 -25.76042,-14.68641 -40.56572,-14.8365 -8.61321,-1.47383 -18.09374,-7.85052 -26.50557,-4.07763"
       id="path16668"
       sodipodi:nodetypes="ccccccccc" />
    <path
       style="fill:none;stroke:#000000;stroke-width:1.9435693px;stroke-linecap:butt;stroke-linejoin:miter;stroke-opacity:1;display:inline"
       d="m 456.41818,342.44727 c 7.20226,8.98903 14.04588,21.88148 1.57165,28.40564 -8.89614,8.20973 -19.5929,14.62583 -30.29353,20.31946 l -9.57595,2.18263"
       id="path16670"
       sodipodi:nodetypes="cccc" />
    <path
       style="fill:none;stroke:#000000;stroke-width:1.9435693px;stroke-linecap:butt;stroke-linejoin:miter;stroke-opacity:1;display:inline"
       d="m 465.26416,362.46086 c 9.77675,-2.57716 27.27338,-7.76784 36.17479,-3.78639"
       id="path16672"
       sodipodi:nodetypes="cc" />
    <path
       style="fill:#000080;fill-opacity:1;stroke:#000000;stroke-width:0.10299976;stroke-miterlimit:4;stroke-opacity:1;stroke-dasharray:none;display:inline"
       d="m 266.97742,474.16312 c -0.78434,-0.16633 -1.7471,-0.78735 -1.7471,-1.12691 0,-0.14204 0.35679,-0.71065 0.79287,-1.2635 2.60191,-3.29862 4.37335,-7.80898 5.37484,-13.68517 0.4516,-2.64985 0.90957,-8.47486 1.25378,-15.94712 0.1252,-2.71854 0.36017,-6.14762 0.52209,-7.62017 0.16194,-1.47254 0.29528,-4.13973 0.29639,-5.92709 0.002,-3.73058 0.42977,-9.86191 1.10959,-15.91407 l 0.47054,-4.18895 1.01385,-1.70214 c 1.78363,-2.99453 5.1253,-5.95244 9.66788,-8.5576 3.21739,-1.84516 12.65685,-6.6165 13.9112,-7.03166 2.22619,-0.73679 4.48187,-1.07654 7.10575,-1.07023 5.11935,0.0117 9.20403,1.24147 13.59539,4.09118 2.06096,1.33746 5.57841,4.91857 6.81322,6.93658 0.5545,0.90619 1.62527,2.43535 2.3795,3.39818 8.5333,10.89326 10.85277,19.66955 7.5658,28.62712 -0.55316,1.50744 -0.99437,6.10029 -1.16484,12.12563 l -0.13628,4.81436 -3.50282,1.22594 c -6.60638,2.31215 -13.14505,3.97344 -22.04718,5.60159 -10.52672,1.92529 -18.28529,3.27301 -19.71928,3.42537 -2.02722,0.21539 -4.55619,1.23418 -6.84918,2.75915 -1.92476,1.28008 -2.86597,2.0228 -6.90069,5.44537 -5.41826,4.59622 -7.87272,5.99404 -9.80536,5.58414 l 0,0 z"
       id="path18383" />
    <path
       style="fill:#008000;fill-opacity:1;stroke:#000000;stroke-width:0.10299976;stroke-miterlimit:4;stroke-opacity:1;stroke-dasharray:none;display:inline"
       d="m 275.7388,403.16294 c 0,-0.0985 0.14094,-1.2392 0.3134,-2.53465 1.07227,-8.05875 1.82634,-16.55543 2.05509,-23.15634 0.12403,-3.58091 1.09196,-11.70038 2.47953,-20.801 1.98632,-13.02764 4.54966,-23.81095 7.58857,-31.92331 0.50899,-1.35873 1.71026,-4.55126 2.66953,-7.09452 l 1.74408,-4.6241 1.20766,-0.30445 c 0.79946,-0.20154 2.32202,-0.30927 4.50445,-0.31871 2.85773,-0.0117 3.51629,0.049 4.94517,0.46128 5.30066,1.52916 10.22285,5.89812 14.43008,12.80826 1.59197,2.6147 2.3843,4.37059 3.25268,7.20826 1.52666,4.98884 1.99978,7.95905 2.93603,18.43257 0.59685,6.67706 0.57333,7.43919 -0.33906,10.98069 -1.75933,6.8289 -5.67436,14.02182 -12.76914,23.46011 l -1.58351,2.10656 -2.86052,0.0845 c -4.5532,0.13466 -7.64903,0.95263 -11.41153,3.0154 -1.18994,0.65238 -3.50798,1.85749 -5.15121,2.67803 -6.3377,3.1647 -10.47717,5.8852 -12.84576,8.44235 -0.64104,0.69208 -1.16554,1.17764 -1.16554,1.07903 z"
       id="path18385" />
    <path
       style="fill:#ff0000;fill-opacity:1;stroke:#000000;stroke-width:0.10299976;stroke-miterlimit:4;stroke-opacity:1;stroke-dasharray:none;display:inline"
       d="m 338.781,415.6243 c -1.28763,-3.25621 -4.2153,-8.13239 -7.20279,-11.99663 -0.87573,-1.13272 -1.90076,-2.56924 -2.27784,-3.19224 -3.39959,-5.61649 -9.40095,-10.04734 -15.75167,-11.62955 -0.79329,-0.19765 -1.5596,-0.39346 -1.70292,-0.43512 -0.15863,-0.0461 0.47804,-1.06523 1.62667,-2.60398 7.82481,-10.48234 11.55321,-18.28055 13.02484,-27.24226 0.0853,-0.5198 -0.37124,-6.65718 -0.7873,-10.5824 l -0.11742,-1.10866 7.1652,0.10901 c 7.56986,0.11503 10.03266,0.37036 13.48221,1.39717 3.93773,1.17216 7.09999,3.47158 9.29091,6.75584 0.66496,0.99677 0.8926,1.16534 2.38704,1.76762 2.35706,0.94993 3.8076,1.86682 5.55927,3.51409 6.12043,5.75558 7.57896,14.28643 3.27764,19.17068 -0.43726,0.4965 -1.57691,1.46693 -2.53255,2.1565 -2.60551,1.88005 -4.28856,4.14192 -5.35752,7.20005 -0.6702,1.91738 -1.02458,3.47404 -1.75768,7.72095 -0.71388,4.13563 -1.20911,6.04196 -2.02171,7.78257 -1.29418,2.7721 -3.10654,4.38223 -6.40592,5.69113 -1.94156,0.77023 -2.35597,1.03158 -6.46359,4.07606 -1.57208,1.16518 -2.92847,2.11853 -3.01422,2.11853 -0.0857,0 -0.275,-0.3012 -0.42057,-0.66935 z"
       id="path18387" />
    <path
       style="fill:#000080;fill-opacity:1;stroke:#000000;stroke-width:0.10299976;stroke-miterlimit:4;stroke-opacity:1;stroke-dasharray:none;display:inline"
       d="m 338.16146,449.11482 c -0.25349,-0.25337 -0.1598,-4.99299 0.18468,-9.34283 0.28851,-3.64331 0.42798,-4.51839 1.01751,-6.38447 1.31397,-4.15912 1.66799,-8.27867 1.01766,-11.84215 -0.60753,-3.32899 -0.6169,-3.04582 0.11489,-3.47466 0.36167,-0.21198 2.09763,-1.44432 3.8577,-2.73854 3.49373,-2.56902 3.61045,-2.63993 5.71778,-3.47317 5.16901,-2.04386 7.4644,-5.4932 8.87217,-13.33243 0.91399,-5.08949 1.2824,-6.73555 1.3061,-5.83551 l 0.0212,0.80259 3.55433,-0.1574 c 7.93645,-0.35152 11.5903,-0.41751 15.72037,-0.28394 6.80038,0.21996 10.95384,0.90552 16.26134,2.68411 l 3.08341,1.03328 4.43735,-0.73995 c 6.49931,-1.08379 9.39066,-1.38856 13.19443,-1.39082 6.37446,-0.004 11.26065,1.28916 15.79623,4.17978 0.77487,0.49384 1.66322,1.02862 1.97411,1.18842 0.70875,0.36428 1.08562,0.93617 1.71053,2.59565 l 0.49384,1.31134 -1.17878,0.70434 c -6.31668,3.77433 -14.51264,8.25028 -18.57388,10.14345 -1.99201,0.92861 -5.3372,2.55936 -7.43374,3.62389 -5.04605,2.56218 -9.69617,4.65623 -22.56232,10.16031 -12.84505,5.49505 -14.84868,6.3842 -21.11997,9.37237 -8.17987,3.89756 -14.64624,6.62906 -23.07743,9.74829 -1.98322,0.7337 -3.74978,1.39203 -3.92568,1.46291 -0.17593,0.0709 -0.38455,0.0643 -0.46361,-0.0155 l 0,-2e-5 z"
       id="path18389" />
    <path
       style="fill:#ff0000;fill-opacity:1;stroke:#000000;stroke-width:0.10299976;stroke-miterlimit:4;stroke-opacity:1;stroke-dasharray:none;display:inline"
       d="m 312.43272,315.66348 c -3.02996,-2.65176 -5.80194,-4.15605 -9.33016,-5.06333 -1.34751,-0.34651 -2.30376,-0.43487 -4.68113,-0.43252 -1.64325,0.002 -3.42815,0.0968 -3.96645,0.21157 -0.5383,0.11464 -0.97872,0.16458 -0.97872,0.11095 0,-0.0536 1.93565,-5.9036 4.30146,-12.99977 6.78891,-20.3632 9.54582,-27.24744 14.191,-35.43608 2.20965,-3.89521 5.51989,-9.08101 5.79479,-9.07808 0.0711,7.6e-4 0.49346,0.67267 0.93829,1.49314 0.44483,0.82046 1.688,2.92827 2.7626,4.684 7.22758,11.8088 8.46846,14.23613 9.79139,19.1534 0.61085,2.2705 0.63613,2.52596 0.61128,6.17852 -0.0136,2.09554 -0.13394,4.58917 -0.26614,5.54139 -1.2545,9.04112 -7.60149,19.96381 -14.63515,25.18595 -1.30577,0.96948 -2.69206,1.82613 -2.92594,1.80808 -0.034,-0.002 -0.75717,-0.61338 -1.60712,-1.35724 z"
       id="path18391" />
    <path
       style="fill:#000080;fill-opacity:1;stroke:#000000;stroke-width:0.10299976;stroke-miterlimit:4;stroke-opacity:1;stroke-dasharray:none;display:inline"
       d="m 341.89765,345.2133 c -0.50996,-0.11309 -4.42003,-0.25509 -8.689,-0.31544 l -7.7618,-0.10979 -0.12792,-1.0609 c -0.7141,-5.92125 -1.90911,-10.96036 -3.5483,-14.96254 -0.81255,-1.98386 -3.15995,-5.90085 -4.98646,-8.32064 l -1.22826,-1.62722 1.27126,-0.82127 c 8.52611,-5.50807 16.40782,-18.88743 16.97001,-28.80693 0.0857,-1.5137 0.19726,-2.1681 0.35876,-2.10616 0.12888,0.0494 0.74127,-0.34462 1.36091,-0.87566 5.67982,-4.86769 14.81699,-7.48795 27.29477,-7.82728 4.33764,-0.11795 4.93664,-0.0909 7.07079,0.31993 5.57578,1.0732 10.46544,3.65578 14.46393,7.63941 3.02159,3.01038 5.09299,6.34043 6.27728,10.09158 0.74761,2.36805 0.84792,4.08826 0.4298,7.37165 -1.42239,11.16987 -6.51363,20.23388 -14.2305,25.33475 -0.79328,0.52437 -2.46229,1.87166 -3.70888,2.99398 -7.3814,6.64558 -14.547,10.74525 -22.22285,12.71437 -1.87453,0.48088 -7.45548,0.70933 -8.9935,0.36812 z"
       id="path18393" />
    <path
       style="fill:#008000;fill-opacity:1;stroke:#000000;stroke-width:0.20599951;stroke-miterlimit:4;stroke-opacity:1;stroke-dasharray:none;display:inline"
       d="m 360.52097,390.9474 c 0,-0.10007 0.43326,-1.16035 0.96284,-2.35617 0.71472,-1.61399 1.84735,-2.97026 4.39553,-5.26349 4.89371,-4.40409 6.36614,-8.06543 5.39391,-13.41242 -1.07137,-5.89218 -5.34076,-11.60245 -10.6489,-14.2428 -1.53011,-0.76109 -2.95045,-1.65148 -3.15633,-1.97862 -0.9566,-1.52016 -3.87401,-4.30261 -5.52569,-5.27012 l -1.82646,-1.06985 2.14409,-0.54847 c 6.94972,-1.77771 14.85289,-6.26181 21.64203,-12.27925 1.81991,-1.61303 4.16466,-3.51766 5.21057,-4.23251 2.82561,-1.93122 6.92499,-6.56879 8.9689,-10.1464 4.40872,-7.71688 6.48321,-18.27444 4.74941,-24.1708 -2.65197,-9.01891 -9.9791,-15.85964 -20.35908,-19.00755 -4.79472,-1.45409 -18.19964,-0.83956 -25.55002,1.1713 -4.48745,1.22764 -10.9843,4.27756 -11.75008,5.51604 -0.58189,0.94105 -0.91962,0.23366 -1.1394,-2.38647 -0.41413,-4.93759 -2.7688,-10.47896 -8.23802,-19.38708 -1.62177,-2.64148 -3.7384,-6.26113 -4.70363,-8.0437 l -1.75497,-3.24103 2.88177,-3.75249 c 4.0071,-5.2178 12.8067,-15.10682 15.36392,-17.266 3.24931,-2.74353 7.11968,-5.3642 10.98879,-7.44064 4.28655,-2.30047 9.32797,-4.48277 10.71453,-4.63806 0.56663,-0.0635 1.86474,-0.32689 2.88467,-0.58538 2.8572,-0.72418 6.45084,-0.13894 14.40658,2.34638 5.65305,1.76593 8.1716,2.33959 11.55553,2.63205 11.48048,0.99219 21.90662,4.64727 32.84667,11.51501 5.81849,3.65265 20.51381,15.02647 24.3397,18.83835 1.87975,1.87286 4.31554,4.77988 5.41291,6.46009 2.71849,4.16233 11.97749,22.86644 14.07924,28.44153 1.60081,4.24625 1.734,4.93201 2.12,10.91536 0.6747,10.45823 -0.42619,21.95527 -2.75864,28.8097 -4.00719,11.77602 -11.50845,20.37087 -20.46793,23.45192 -7.03146,2.41804 -11.80178,6.16604 -21.66401,17.02131 -5.70717,6.28179 -8.45597,8.66361 -15.27136,13.23252 -7.74038,5.18899 -16.1168,8.92041 -21.81373,9.7173 -2.87749,0.4025 -24.43334,0.97634 -24.43334,0.65044 z"
       id="path18399" />
    <path
       style="fill:#ff0000;fill-opacity:1;stroke:#000000;stroke-width:0.07283184;stroke-miterlimit:4;stroke-opacity:1;stroke-dasharray:none;display:inline"
       d="m 398.43763,394.39486 c -1.7289,-0.76454 -5.95589,-1.99052 -8.26196,-2.39628 l -1.04989,-0.18479 1.85124,-0.6161 c 2.36983,-0.78869 3.33285,-1.16509 5.53866,-2.16482 5.64994,-2.56068 14.27281,-7.96289 18.99416,-11.8998 2.25244,-1.87817 4.68905,-4.3491 9.46176,-9.59496 4.50006,-4.94618 7.23005,-7.69273 9.31119,-9.3677 2.97596,-2.39516 6.77167,-4.56982 9.46705,-5.42395 4.42601,-1.40258 8.20342,-3.65367 11.52908,-6.8706 l 1.40304,-1.35718 0.72896,0.98801 c 1.7784,2.41037 3.61854,5.49796 4.5813,7.68695 2.16083,4.91309 2.41239,8.53044 0.81523,11.72314 -0.79661,1.59237 -2.40424,3.24848 -4.24186,4.36971 -0.70615,0.43087 -1.95186,1.36855 -2.76826,2.08377 -6.92112,6.06331 -15.70334,11.93602 -26.54449,17.75042 l -2.03977,1.09399 -4.88088,1.10007 c -4.73059,1.0662 -4.95493,1.10252 -7.28495,1.17949 -3.00434,0.0993 -6.52096,0.5088 -11.583,1.34896 -2.16363,0.35911 -4.06499,0.68087 -4.22526,0.71503 -0.16019,0.0342 -0.52086,-0.0394 -0.80135,-0.16342 z"
       id="path18405" />
    <path
       style="fill:#000080;fill-opacity:1;stroke:#000000;stroke-width:0.07283184;stroke-miterlimit:4;stroke-opacity:1;stroke-dasharray:none;display:inline"
       d="m 438.13462,402.16531 c -0.72999,-2.21023 -1.62451,-3.47418 -2.93582,-4.14825 -0.46369,-0.23836 -1.32628,-0.74689 -1.91685,-1.13003 -2.17876,-1.41353 -5.91106,-2.96629 -8.61515,-3.58418 l -0.80135,-0.18304 2.12197,-0.48111 c 2.01108,-0.45597 2.24261,-0.54671 4.43072,-1.73644 11.51401,-6.2605 19.15283,-11.36786 26.76853,-17.89761 0.93759,-0.80388 2.27283,-1.82205 2.96718,-2.26257 1.47369,-0.93497 2.96278,-2.33259 3.80313,-3.56953 0.57745,-0.84997 1.35864,-2.50855 1.55483,-3.30116 0.11081,-0.44797 -0.14541,-0.36024 4.97709,-1.70304 13.79759,-3.61678 22.07559,-4.62415 27.74149,-3.37594 2.24979,0.49565 2.24889,0.24006 0.01,2.64306 -4.43961,4.76335 -9.63499,9.71283 -14.27361,13.59807 -3.42911,2.87219 -5.41343,4.37854 -8.92188,6.77294 -1.82187,1.24335 -5.13286,3.50564 -7.35777,5.0273 -8.48465,5.80282 -14.43358,9.19195 -19.80418,11.28246 -2.38544,0.92855 -6.59899,3.04409 -9.03323,4.53541 l -0.46052,0.28213 -0.2538,-0.7684 0,0 z"
       id="path18407" />
    <path
       style="fill:#ff0000;fill-opacity:1;stroke:#000000;stroke-width:0.20599951;stroke-miterlimit:4;stroke-opacity:1;stroke-dasharray:none;display:inline"
       d="m 466.02259,359.66279 c 0,-1.75123 -1.39685,-6.4073 -2.68708,-8.95671 -0.51966,-1.02682 -1.81573,-3.15841 -2.88012,-4.73687 -1.83828,-2.72604 -1.90471,-2.92154 -1.32544,-3.89966 0.3354,-0.56636 1.55273,-2.57668 2.70515,-4.46736 2.79894,-4.59193 5.1554,-10.7658 6.31288,-16.53959 0.86354,-4.30756 0.95032,-5.8568 0.95747,-17.0939 l 0.008,-12.35704 -2.05541,-5.35472 c -2.26546,-5.90195 -11.85871,-25.34556 -14.42912,-29.24496 -2.75825,-4.18435 -8.95773,-9.96902 -18.10127,-16.89007 -9.95677,-7.53664 -14.61918,-10.56217 -21.00792,-13.63245 -8.54128,-4.10476 -15.42624,-6.04763 -24.10609,-6.80253 -3.64611,-0.3171 -6.0453,-0.83138 -10.71451,-2.29668 -3.30904,-1.03845 -6.4364,-1.9773 -6.94972,-2.08633 -1.50182,-0.31904 -1.50346,-0.92371 -0.002,-0.92371 0.75866,0 5.17391,-0.66093 9.81163,-1.46876 4.63774,-0.80783 10.8293,-1.64016 13.75906,-1.84962 2.92973,-0.20947 9.60571,-0.8431 14.83548,-1.40808 5.22978,-0.56495 12.47264,-1.21547 16.09522,-1.44557 8.34674,-0.5302 22.63324,-0.52682 26.32211,0.006 3.54302,0.51195 8.41125,2.12786 10.63193,3.52903 0.93358,0.58907 2.82483,1.44097 4.20276,1.89311 7.6514,2.51063 12.45981,6.15578 23.31122,17.67174 l 6.83181,7.2502 5.64794,10.2565 c 8.37193,15.2032 14.11001,28.80752 15.99864,37.93093 1.91343,9.24318 2.16306,30.53472 0.44238,37.72976 -2.16058,9.03447 -8.75395,21.8153 -15.39208,29.83658 -2.01826,2.43878 -2.69715,3.00572 -3.37535,2.81871 -4.55465,-1.25591 -11.21008,-1.27137 -18.15704,-0.0422 -3.28745,0.58167 -14.82271,3.30631 -16.17481,3.82051 -0.35132,0.13369 -0.51511,-0.26268 -0.51511,-1.24644 l 0,0 z"
       id="path18413" />
    <text
       xml:space="preserve"
       style="font-size:27.20997047px;font-style:normal;font-variant:normal;font-weight:normal;font-stretch:normal;text-align:start;line-height:125%;writing-mode:lr-tb;text-anchor:start;fill:#000000;fill-opacity:1;stroke:none;display:inline;font-family:Bitstream Vera Sans;-inkscape-font-specification:Bitstream Vera Sans"
       x="293.3862"
       y="363.81927"
       id="text19472"
       sodipodi:linespacing="125%"
       transform="scale(1.0002378,0.99976222)"><tspan
         sodipodi:role="line"
         id="tspan19474"
         x="293.3862"
         y="363.81927">3</tspan></text>
    <text
       xml:space="preserve"
       style="font-size:27.20997047px;font-style:normal;font-variant:normal;font-weight:normal;font-stretch:normal;text-align:start;line-height:125%;writing-mode:lr-tb;text-anchor:start;fill:#000000;fill-opacity:1;stroke:none;display:inline;font-family:Bitstream Vera Sans;-inkscape-font-specification:Bitstream Vera Sans"
       x="297.14343"
       y="435.11191"
       id="text19472-2"
       sodipodi:linespacing="125%"
       transform="scale(1.0002378,0.99976222)"><tspan
         sodipodi:role="line"
         id="tspan19474-5"
         x="297.14343"
         y="435.11191">2</tspan></text>
    <text
       xml:space="preserve"
       style="font-size:27.20997047px;font-style:normal;font-variant:normal;font-weight:normal;font-stretch:normal;text-align:start;line-height:125%;writing-mode:lr-tb;text-anchor:start;fill:#000000;fill-opacity:1;stroke:none;display:inline;font-family:Bitstream Vera Sans;-inkscape-font-specification:Bitstream Vera Sans"
       x="372.85141"
       y="422.53259"
       id="text19472-2-1"
       sodipodi:linespacing="125%"
       transform="scale(1.0002378,0.99976222)"><tspan
         sodipodi:role="line"
         id="tspan19474-5-3"
         x="372.85141"
         y="422.53259">2</tspan></text>
    <text
       xml:space="preserve"
       style="font-size:27.20997047px;font-style:normal;font-variant:normal;font-weight:normal;font-stretch:normal;text-align:start;line-height:125%;writing-mode:lr-tb;text-anchor:start;fill:#000000;fill-opacity:1;stroke:none;display:inline;font-family:Bitstream Vera Sans;-inkscape-font-specification:Bitstream Vera Sans"
       x="452.36719"
       y="391.63269"
       id="text19472-2-12"
       sodipodi:linespacing="125%"
       transform="scale(1.0002378,0.99976222)"><tspan
         sodipodi:role="line"
         id="tspan19474-5-4"
         x="452.36719"
         y="391.63269">2</tspan></text>
    <text
       xml:space="preserve"
       style="font-size:27.20997047px;font-style:normal;font-variant:normal;font-weight:normal;font-stretch:normal;text-align:start;line-height:125%;writing-mode:lr-tb;text-anchor:start;fill:#000000;fill-opacity:1;stroke:none;display:inline;font-family:Bitstream Vera Sans;-inkscape-font-specification:Bitstream Vera Sans"
       x="393.49258"
       y="343.60965"
       id="text19472-0"
       sodipodi:linespacing="125%"
       transform="scale(1.0002378,0.99976222)"><tspan
         sodipodi:role="line"
         id="tspan19474-2"
         x="393.49258"
         y="343.60965">3</tspan></text>
    <text
       xml:space="preserve"
       style="font-size:27.20997047px;font-style:normal;font-variant:normal;font-weight:normal;font-stretch:normal;text-align:start;line-height:125%;writing-mode:lr-tb;text-anchor:start;fill:#000000;fill-opacity:1;stroke:none;display:inline;font-family:Bitstream Vera Sans;-inkscape-font-specification:Bitstream Vera Sans"
       x="351.01544"
       y="312.11688"
       id="text19472-2-1-1"
       sodipodi:linespacing="125%"
       transform="scale(1.0002378,0.99976222)"><tspan
         sodipodi:role="line"
         id="tspan19474-5-3-1"
         x="351.01544"
         y="312.11688">2</tspan></text>
    <text
       xml:space="preserve"
       style="font-size:27.20997047px;font-style:normal;font-variant:normal;font-weight:normal;font-stretch:normal;text-align:start;line-height:125%;writing-mode:lr-tb;text-anchor:start;fill:#000000;fill-opacity:1;stroke:none;display:inline;font-family:Bitstream Vera Sans;-inkscape-font-specification:Bitstream Vera Sans"
       x="333.29959"
       y="384.62869"
       id="text19472-2-1-4"
       sodipodi:linespacing="125%"
       transform="scale(1.0002378,0.99976222)"><tspan
         sodipodi:role="line"
         id="tspan19474-5-3-6"
         x="333.29959"
         y="384.62869">1</tspan></text>
    <text
       xml:space="preserve"
       style="font-size:27.20997047px;font-style:normal;font-variant:normal;font-weight:normal;font-stretch:normal;text-align:start;line-height:125%;writing-mode:lr-tb;text-anchor:start;fill:#000000;fill-opacity:1;stroke:none;display:inline;font-family:Bitstream Vera Sans;-inkscape-font-specification:Bitstream Vera Sans"
       x="310.035"
       y="288.45358"
       id="text19472-2-1-4-1"
       sodipodi:linespacing="125%"
       transform="scale(1.0002378,0.99976222)"><tspan
         sodipodi:role="line"
         id="tspan19474-5-3-6-7"
         x="310.035"
         y="288.45358">1</tspan></text>
    <text
       xml:space="preserve"
       style="font-size:27.20997047px;font-style:normal;font-variant:normal;font-weight:normal;font-stretch:normal;text-align:start;line-height:125%;writing-mode:lr-tb;text-anchor:start;fill:#000000;fill-opacity:1;stroke:none;display:inline;font-family:Bitstream Vera Sans;-inkscape-font-specification:Bitstream Vera Sans"
       x="430.33881"
       y="377.44537"
       id="text19472-2-1-4-4"
       sodipodi:linespacing="125%"
       transform="scale(1.0002378,0.99976222)"><tspan
         sodipodi:role="line"
         id="tspan19474-5-3-6-9"
         x="430.33881"
         y="377.44537">1</tspan></text>
    <text
       xml:space="preserve"
       style="font-size:27.20997047px;font-style:normal;font-variant:normal;font-weight:normal;font-stretch:normal;text-align:start;line-height:125%;writing-mode:lr-tb;text-anchor:start;fill:#000000;fill-opacity:1;stroke:none;display:inline;font-family:Bitstream Vera Sans;-inkscape-font-specification:Bitstream Vera Sans"
       x="478.95471"
       y="287.21756"
       id="text19472-2-1-4-7"
       sodipodi:linespacing="125%"
       transform="scale(1.0002378,0.99976222)"><tspan
         sodipodi:role="line"
         id="tspan19474-5-3-6-6"
         x="478.95471"
         y="287.21756">1</tspan></text>
  </g>
</svg>
